<svg width="1220" height="573" viewBox="0 0 1220 573" fill="none" xmlns="http://www.w3.org/2000/svg">
<rect y="15" width="1220" height="543" fill="#FFF6F6"/>
<path d="M0 13.9124C290.577 12.123 373.6 -0.850549 547.731 0.0441728C721.862 0.938895 766.607 11.9738 908.932 9.1405C1025.39 6.82212 1106.84 13.7893 1175.72 15.2545H1220C1205.7 15.6339 1191.02 15.5799 1175.72 15.2545H0V13.9124Z" fill="#FFF6F6"/>
<path d="M1220 559.088C929.423 560.877 846.4 573.851 672.269 572.956C498.138 572.061 453.393 561.026 311.068 563.859C194.61 566.178 113.163 559.211 44.2817 557.746H0C14.3047 557.366 28.9833 557.42 44.2817 557.746H1220V559.088Z" fill="#FFF6F6"/>
</svg>
