<svg width="66" height="64" viewBox="0 0 66 64" fill="none" xmlns="http://www.w3.org/2000/svg">
<g clip-path="url(#clip0_1_562)">
<path d="M59.6292 55.8257L63.4387 55.2627L59.6534 29.6751L59.6292 3.81245L55.8265 3.80944L55.2627 0L29.6751 3.78549L3.81245 3.78073L3.80848 7.61221L0 8.17522L3.78549 33.7625L3.76233 59.6256L7.61126 59.6283L8.17506 63.4379L33.7627 59.6526L59.6253 59.6361L59.6292 55.8257Z" fill="white"/>
<path d="M54.0059 1.69434L1.69336 9.43358L9.43261 61.7452L61.7442 54.0059L54.0059 1.69434Z" fill="#0D0D0D"/>
<path d="M55.4761 26.9592C54.9507 28.901 53.7008 29.9247 53.3987 30.0538C53.0955 30.1837 52.5239 30.3943 52.5884 29.1233C52.6519 27.8532 53.513 26.3809 53.9336 25.9124C54.3539 25.4438 54.664 25.0763 55.1894 25.0262C55.1903 25.0262 56.0015 25.0184 55.4761 26.9592ZM55.3394 23.9532C52.2508 24.5826 50.8103 27.425 50.8103 27.425C49.9732 28.5854 49.4264 31.6079 52.4152 31.2633C55.404 30.9188 56.9463 28.8501 57.567 27.8387C57.6577 27.6911 57.7374 27.5371 57.8056 27.3778L57.3255 24.137C56.8848 23.8686 56.241 23.7695 55.3394 23.9532Z" fill="white"/>
<path d="M51.313 23.6239C49.6886 23.7345 48.3368 25.2578 47.7075 26.0996C47.7006 26.1063 47.692 26.111 47.6826 26.1131C47.6751 26.1141 47.6675 26.1131 47.6606 26.1103C47.6537 26.1074 47.6476 26.1027 47.6431 26.0967C47.6412 26.0929 47.6385 26.0889 47.6363 26.0851C47.6353 26.0821 47.6334 26.0785 47.6334 26.0755C47.6334 26.0755 47.6325 26.0764 47.6325 26.0785C47.3689 25.6281 46.8482 25.0941 45.8765 25.1528C45.273 25.1892 44.563 25.6598 44.5034 25.8216C44.5034 25.8216 44.3821 26.0198 44.6035 26.0602C44.8249 26.1016 45.9515 26.1556 45.8957 27.3352C45.8957 27.3352 45.9062 29.0355 45.2635 31.3668C45.2635 31.3668 44.8969 32.1568 45.7445 32.1366C46.5933 32.1163 48.1898 31.9008 48.2426 31.336C48.2963 30.7711 48.2684 30.8712 48.2684 30.8712C48.2684 30.8712 48.2781 28.8274 48.0741 27.49C48.0736 27.4632 48.0774 27.4365 48.0856 27.411C48.8873 25.7994 50.2188 25.4501 50.2188 25.4501C50.7298 25.3212 51.0744 25.655 51.1994 25.7889C51.3244 25.9226 51.4053 25.8687 51.4053 25.8687C51.7565 25.7542 52.0695 25.1712 52.0695 25.1712C52.2212 24.971 52.7592 23.5257 51.313 23.6239Z" fill="white"/>
<path d="M39.969 31.4042C39.969 31.4042 39.7977 29.6192 39.5888 27.6525C40.0402 27.308 41.0382 26.6728 41.4864 27.432C42.0627 28.406 41.1737 30.6575 39.969 31.4042ZM43.3202 25.6992C41.7798 25.1662 40.1285 26.2207 39.5406 26.6519C39.5378 26.6538 39.5359 26.6556 39.5328 26.6556C39.5079 26.6594 39.4857 26.6421 39.4789 26.6191C39.2875 24.8698 39.0864 23.1936 38.9681 22.698C38.6918 21.5414 38.816 20.0942 37.1687 20.3376C36.6607 20.4128 35.5155 20.6033 34.8775 21.0074C34.8353 21.0343 34.765 21.1266 34.9669 21.1834C34.9669 21.1834 35.5675 21.3989 35.8734 22.4101C35.8734 22.4101 37.2938 26.4332 37.5314 32.2287C37.5583 32.8956 37.873 33.0506 37.873 33.0506C38.9334 33.6818 41.1329 31.9834 42.6705 30.3341C44.2402 28.6523 45.2361 26.3612 43.3202 25.6992ZM44.1083 34.0821C44.1083 34.0821 44.0411 33.8637 44.0063 33.7771C43.9648 33.6732 43.8582 33.6933 43.8582 33.6933C43.6262 33.7281 43.7012 33.9955 43.7012 33.9955C44.4412 37.1063 44.8348 44.5011 38.7613 46.997C32.6866 49.492 27.5897 46.1002 26.7796 45.5478C24.5098 43.9986 24.1498 42.7161 24.1056 42.5129C24.106 42.5066 24.1085 42.5007 24.1127 42.496C24.1169 42.4913 24.1225 42.4881 24.1287 42.4869C24.5425 42.5294 29.4345 42.9709 34.3218 41.0418C39.4312 39.0248 42.8356 34.9643 43.5716 33.1187C43.5716 33.1187 43.6977 32.8774 43.5437 32.8109C43.3975 32.7502 43.303 32.9254 43.303 32.9254C43.249 32.9949 43.1924 33.0659 43.1326 33.1429C41.0033 35.864 37.9155 38.6343 32.2364 40.2028C26.0896 41.9012 21.2276 40.2076 21.2276 40.2076C21.2276 40.2076 21.141 40.1653 21.0861 40.1894C21.0323 40.2125 21.0361 40.3798 21.0399 40.4425C21.0399 40.4425 21.4788 46.5777 29.9406 48.9197C37.9866 51.1454 47.3251 46.6959 44.1083 34.0821ZM7.11076 30.6258C7.11076 30.6258 8.76379 29.7713 10.9403 29.2392L10.9663 29.2354C10.9885 29.3923 11.0096 29.5442 11.028 29.6885C11.0512 29.8723 11.078 30.0734 11.1059 30.2861C9.25749 30.7682 7.97763 31.08 7.25603 31.1818C7.25603 31.1818 6.58914 31.332 6.56709 31.1C6.54695 30.8934 6.90775 30.7403 7.11076 30.6258ZM8.46547 32.1797C9.1054 32.0056 10.3217 31.6784 11.2694 31.4446C11.5581 33.447 11.9238 35.7679 11.9342 35.816C11.9342 35.816 12.149 36.8781 12.4067 37.0592C12.6405 37.2246 12.6868 37.2804 13.6431 37.1815C14.6005 37.0812 15.3616 36.8638 15.3482 36.5607C15.3482 36.5607 15.3548 36.428 15.3153 36.2345C15.3153 36.2345 14.8448 33.6413 14.4042 30.641C14.9824 30.4986 15.5309 30.3602 15.9813 30.2514C16.5143 30.1232 17.009 29.9752 17.5034 29.8703C17.7402 31.5303 18.1299 34.0849 18.1299 34.0849C18.2501 34.8652 18.4262 35.5291 18.4262 35.5291C18.4262 35.5291 18.6736 36.2594 19.2634 36.2064C19.733 36.165 20.6769 35.9977 21.0003 35.7349C21.2494 35.5319 20.9733 35.2288 20.9357 35.0507C20.9357 35.0507 20.1707 32.8357 19.732 29.4305C21.9105 29.0399 23.3077 28.9022 23.3077 28.9022C23.3077 28.9022 20.8021 31.4724 21.6152 33.3689C22.4281 35.2664 24.9656 34.6998 26.7102 32.4807C26.7102 32.4807 27.4424 34.6206 29.7777 33.8971C29.7777 33.8971 29.8884 33.8645 29.897 33.7845C29.9066 33.7048 29.8307 33.6161 29.7392 33.5661C29.7392 33.5661 28.9549 33.2044 28.8769 31.8919C28.7979 30.5801 29.3118 28.3711 29.3099 28.2872C29.308 28.2036 29.3348 27.6744 28.6652 27.8369C27.9954 27.9985 27.191 28.5027 27.015 28.6797C26.8361 28.8587 26.8023 29.0202 26.7119 29.3341C26.7119 29.3341 25.973 31.7626 24.6373 32.9636C23.1873 34.2665 23.5375 32.492 23.9524 31.601C23.9524 31.601 24.7664 29.7112 26.6792 28.2198C26.6792 28.2198 27.2605 27.8062 27.803 27.581C27.9694 27.5116 28.0715 27.2788 27.7011 27.1757C27.7011 27.1757 27.2632 27.0903 26.6031 27.1248C26.6031 27.1248 24.0215 27.2249 19.5894 28.1506C19.5161 27.3685 19.4683 26.5842 19.4461 25.799C19.3692 23.0421 19.5856 21.9125 19.5856 21.9125C19.5856 21.9125 19.6491 21.5306 19.4153 21.3967C19.4153 21.3967 19.2171 21.2005 18.6282 21.2611C17.6814 21.3593 16.9144 21.6893 16.5276 21.9145C16.5276 21.9145 16.3495 22.0137 16.4034 22.0955C16.4486 22.1618 16.5459 22.1743 16.6556 22.3783C16.6556 22.3783 16.8278 22.589 16.8962 23.7928C16.8962 23.7928 17.333 28.601 17.3398 28.6578C16.7596 28.7979 16.181 28.9441 15.604 29.0966C15.1256 29.2248 14.6687 29.3458 14.2289 29.4624C14.0451 28.1297 13.8824 26.7826 13.7844 25.6049L13.5832 22.8942C13.5832 22.8942 13.6255 21.9734 12.9962 21.9821C12.4305 21.9907 10.6514 22.4823 9.50712 23.3917C9.15012 23.6756 9.56976 23.7449 9.62733 23.7785C9.62733 23.7785 9.97957 23.889 10.0969 24.3972C10.0969 24.3972 10.5857 26.7748 10.8899 28.729L10.8495 28.7395C10.8495 28.7395 6.84955 29.8095 4.87695 30.9614L5.14339 32.7578C5.85881 32.7966 6.93662 32.6463 8.46547 32.1797Z" fill="white"/>
<path d="M32.4839 31.0959C31.9355 31.0083 31.615 30.9409 30.8721 30.7467C30.1285 30.5522 29.9398 30.0539 29.9398 30.0539C29.3105 28.2872 31.5765 26.4917 31.5765 26.4917C33.2479 25.0782 34.5603 24.7895 34.5603 24.7895C35.9161 24.5058 36.2057 25.9644 36.2057 25.9644C36.2057 25.9644 36.2664 26.3282 36.2539 26.4714C36.2539 26.4714 36.2732 26.5225 36.2001 26.5322C35.283 26.6583 34.5729 26.9315 34.5729 26.9315C32.3723 27.8255 32.2422 28.8638 32.2422 28.8638C32.1691 29.2197 32.2625 29.774 32.7975 29.9897C33.3151 30.1965 35.3244 30.6661 35.3244 30.6661C36.5888 30.9722 36.703 31.6072 36.703 31.6072C37.2679 33.0785 35.4184 34.9914 35.4184 34.9914C33.6268 36.9477 32.6348 37.4105 31.3974 37.7088C30.1601 38.0071 29.1871 36.5013 29.1871 36.5013C29.0899 36.3617 28.7743 36.0307 28.8031 35.795C28.831 35.5611 29.1419 35.6477 29.1774 35.6777C29.264 35.7498 29.4469 35.8182 29.4469 35.8182C30.3995 36.2183 31.3405 35.5747 31.3405 35.5747C32.7559 34.5385 33.6334 33.252 33.6788 33.1749C33.723 33.098 34.2887 32.2108 33.9625 31.7133C33.6372 31.2139 32.4288 31.0984 32.4288 31.0984" fill="white"/>
<path d="M63.5196 58.021V57.2965H64.0038C64.2501 57.2965 64.5137 57.3504 64.5137 57.6391C64.5137 57.9989 64.2452 58.02 63.944 58.02H63.5196V58.021ZM63.5196 58.3221H63.9275L64.5464 59.3371H64.9438L64.2779 58.3067C64.6214 58.2634 64.884 58.0806 64.884 57.6621C64.884 57.2002 64.6108 56.9963 64.0585 56.9963H63.1664V59.3384H63.5204V58.3223H63.5196V58.3221ZM63.9499 60.1954C65.0555 60.1954 66.0002 59.3362 66.0002 58.1604C66.0002 56.995 65.0564 56.1357 63.9499 56.1357C62.8326 56.1357 61.8877 56.995 61.8877 58.1604C61.8877 59.3362 62.8326 60.1954 63.9499 60.1954ZM62.2958 58.1604C62.2958 57.199 63.0202 56.4745 63.9499 56.4745C64.8677 56.4745 65.5921 57.199 65.5921 58.1604C65.5921 59.139 64.8677 59.8578 63.9499 59.8578C63.0202 59.8568 62.2958 59.1379 62.2958 58.1604Z" fill="#0D0D0D"/>
</g>
<defs>
<clipPath id="clip0_1_562">
<rect width="66" height="63.4392" fill="white"/>
</clipPath>
</defs>
</svg>
