<svg width="74" height="58" viewBox="0 0 74 58" fill="none" xmlns="http://www.w3.org/2000/svg">
<path fill-rule="evenodd" clip-rule="evenodd" d="M72.9786 43.6461C71.5476 45.4515 68.0415 46.7395 68.0415 46.7395L41.9598 56.1078V49.1989L61.1541 42.3598C63.3323 41.5794 63.6668 40.4761 61.8963 39.897C60.1291 39.3163 56.9292 39.4827 54.7494 40.2664L41.9598 44.7709V37.6007L42.6969 37.3511C42.6969 37.3511 46.3927 36.0432 51.5894 35.4674C56.7861 34.895 63.1493 35.5456 68.1447 37.4393C73.774 39.2181 74.408 41.8406 72.9786 43.6461ZM44.4425 31.8815V14.213C44.4425 12.138 44.0598 10.2277 42.1129 9.68692C40.6219 9.20934 39.6967 10.5938 39.6967 12.6672V56.9132L27.7641 53.1259V0.370117C32.8377 1.31195 40.2292 3.5384 44.2029 4.87793C54.3084 8.34739 57.7346 12.6655 57.7346 22.395C57.7346 31.8782 51.8806 35.4724 44.4425 31.8815ZM5.86906 48.4767C0.0899506 46.8493 -0.871848 43.458 1.76228 41.5045C4.19673 39.7007 8.33679 38.3428 8.33679 38.3428L25.4461 32.2592V39.1948L13.1341 43.6011C10.9593 44.3815 10.6248 45.4865 12.392 46.0655C14.1608 46.6446 17.3624 46.4799 19.5406 45.6978L25.4461 43.5545V49.7596C25.0717 49.8262 24.6541 49.8927 24.268 49.9576C18.3608 50.9228 12.0692 50.5201 5.86906 48.4767ZM69.178 51.224C69.9251 51.224 70.6257 51.5135 71.1532 52.0476C71.6807 52.5735 71.9719 53.2757 71.9719 54.0212C71.9719 54.77 71.6807 55.4688 71.1532 55.9947C70.6257 56.5255 69.9251 56.815 69.178 56.815C68.4309 56.815 67.732 56.5255 67.2028 55.9947C66.6753 55.4688 66.3858 54.77 66.3858 54.0212C66.3858 52.4803 67.6371 51.224 69.178 51.224ZM66.855 54.0212C66.855 54.6418 67.0963 55.2259 67.5356 55.6619C67.9733 56.1045 68.559 56.3441 69.178 56.3441C70.461 56.3441 71.501 55.3025 71.501 54.0212C71.501 53.3988 71.2613 52.8148 70.8204 52.3771C70.3828 51.9345 69.797 51.6965 69.178 51.6965C68.559 51.6965 67.9733 51.9345 67.5356 52.3771C67.0963 52.8148 66.855 53.3988 66.855 54.0212ZM70.0217 52.5152C70.3278 52.65 70.4826 52.9096 70.4826 53.279C70.4826 53.4687 70.4426 53.6285 70.3611 53.7533C70.3029 53.8431 70.2197 53.9163 70.1265 53.9796C70.1997 54.0228 70.2646 54.0744 70.3129 54.1343C70.3794 54.2208 70.4177 54.359 70.4227 54.547L70.4377 54.9447C70.4427 55.0512 70.4493 55.1327 70.466 55.1826C70.4826 55.2559 70.5142 55.3025 70.5542 55.3174L70.5958 55.3374V55.3823V55.4506V55.5188H70.5275H70.0333H69.9934L69.9734 55.4839C69.9568 55.4506 69.9452 55.4123 69.9335 55.3624C69.9252 55.3175 69.9168 55.2393 69.9118 55.1194L69.8869 54.6252C69.8802 54.4538 69.822 54.3473 69.7121 54.2908C69.6439 54.2592 69.5308 54.2442 69.3777 54.2442H68.5307V55.4506V55.5188H68.4608H68.0581H67.9899V55.4506V52.477V52.4088H68.0581H69.4342C69.6705 52.4088 69.8686 52.4437 70.0216 52.5153L70.0217 52.5152ZM68.5307 53.7682H69.3927C69.5657 53.7682 69.7038 53.7366 69.802 53.6717C69.8919 53.6068 69.9351 53.4887 69.9351 53.3173C69.9351 53.1309 69.8736 53.0094 69.7438 52.9445C69.6722 52.9096 69.5724 52.8896 69.4459 52.8896H68.5307V53.7682Z" fill="#0D0D0D"/>
</svg>
