<svg width="131" height="33" viewBox="0 0 131 33" fill="none" xmlns="http://www.w3.org/2000/svg">
<path d="M17.1339 32.2725C6.86297 32.269 0 24.9903 0 16.165C0 7.3397 6.87862 -0.0225634 17.1183 5.1976e-05H113.882C124.121 -0.022566 131 7.3397 131 16.165C131 24.9903 124.137 32.269 113.866 32.2725H17.1339ZM17.1652 3.96996C9.03406 3.98562 4.04297 9.42033 4.04297 16.1441C4.04297 22.8662 9.00275 28.3461 17.1652 28.3165H113.835C121.997 28.3444 126.959 22.8662 126.959 16.1441C126.959 9.42206 121.968 3.98736 113.836 3.9717L17.1652 3.96996ZM119.035 9.64474C119.774 9.64474 120.141 9.89526 120.141 10.3911C120.141 10.732 119.929 10.9895 119.576 11.0782L120.155 12.2351H119.454L118.958 11.1739H118.65V12.2351H118.019V9.64474H119.035ZM118.977 8.63226C117.686 8.63226 116.639 9.67954 116.639 10.9704C116.639 12.2612 117.686 13.3085 118.977 13.3085C120.268 13.3085 121.315 12.2612 121.315 10.9704C121.315 9.67954 120.268 8.63226 118.977 8.63226ZM120.868 10.9721C120.868 12.0159 120.021 12.8631 118.977 12.8631C117.933 12.8631 117.086 12.0159 117.086 10.9721C117.086 9.9283 117.933 9.08109 118.977 9.08109C120.021 9.08109 120.868 9.92656 120.868 10.9721ZM118.65 10.7947H118.958C119.318 10.7947 119.492 10.6851 119.492 10.4276C119.492 10.1579 119.306 10.0414 118.927 10.0414H118.65V10.7947ZM65.8062 17.1253C65.7992 16.2398 65.8184 15.6483 66.1089 15.1438C66.4655 14.521 67.1214 14.2253 67.7163 14.2218H67.7145C68.3095 14.2253 68.9654 14.521 69.322 15.1438C69.6125 15.65 69.6247 16.2415 69.6177 17.127L65.8062 17.1253ZM69.6021 20.1714C69.6021 20.1714 69.6056 20.2167 69.6056 20.7838C69.6056 22.6313 68.3896 23.0419 67.7146 23.0419C67.0396 23.0419 65.8027 22.6313 65.8027 20.7838C65.8027 20.2306 65.8062 18.698 65.8062 18.698C65.8062 18.698 74.4123 18.7014 74.4123 18.6962C74.4123 15.563 71.387 12.9674 67.6711 12.9674C63.9552 12.9674 60.9438 15.5073 60.9438 18.6405C60.9438 21.7736 63.9552 24.3118 67.6711 24.3118C70.7538 24.3118 73.3581 22.553 74.1531 20.1679L69.6021 20.1714ZM83.9769 13.1362C85.6853 13.0875 89.1507 14.2061 89.1263 18.2056C89.1229 18.9154 89.1246 23.7029 89.1246 23.7029H84.5858C84.5858 23.7029 84.5858 17.6994 84.5858 17.0679C84.5858 16.1876 83.7438 15.2082 82.4982 15.2082C81.2543 15.2082 80.3288 16.1876 80.3288 17.0679C80.3288 17.4993 80.334 23.7029 80.334 23.7029H75.7987L75.8022 13.6007L80.3358 13.5973C80.3358 13.5973 80.3306 14.4097 80.3358 14.6602C81.2091 13.8269 82.4686 13.1797 83.9769 13.1362H83.9769ZM46.8491 13.1362C48.5574 13.0875 52.0228 14.2061 51.9985 18.2056C51.995 18.9154 51.9967 23.7029 51.9967 23.7029H47.4579C47.4579 23.7029 47.4579 17.6994 47.4579 17.0679C47.4579 16.1876 46.6159 15.2082 45.3703 15.2082C44.1265 15.2082 43.201 16.1876 43.201 17.0679C43.201 17.4993 43.2062 23.7029 43.2062 23.7029H38.6709L38.6691 13.6007L43.2079 13.5973C43.2079 13.5973 43.2027 14.4097 43.2079 14.6602C44.0812 13.8269 45.339 13.1797 46.849 13.1362H46.8491ZM98.9728 8.51397H103.482V23.7064H98.9659C98.9659 23.7064 98.9641 23.2159 98.9641 23.1219C97.2157 24.2196 95.2429 24.2179 93.7068 23.5012C93.2945 23.3098 90.5824 22.0085 90.5824 18.4927C90.5824 15.8258 93.0979 12.9136 96.3911 13.2023C97.4749 13.298 98.2456 13.6929 98.9763 14.1035C98.9728 11.7654 98.9728 8.51397 98.9728 8.51397H98.9728ZM99.0059 18.604C99.0059 18.604 99.0059 17.3375 99.0059 16.7982C99.0059 15.236 97.9273 14.8376 97.2175 14.8376C96.4903 14.8376 95.4257 15.236 95.4257 16.7982C95.4257 17.3166 95.4275 18.5988 95.4275 18.5988C95.4275 18.5988 95.4257 19.8583 95.4257 20.3958C95.4257 21.9563 96.4903 22.3652 97.2158 22.3652C97.9273 22.3652 99.0076 21.9563 99.0076 20.3958C99.0076 19.747 99.0058 18.604 99.0058 18.604H99.0059ZM113.482 18.5744C113.482 18.5744 113.48 20.1019 113.48 20.7142C113.48 22.3251 112.528 22.9897 111.613 22.9897C110.696 22.9897 109.741 22.3251 109.741 20.7142C109.741 20.1019 109.743 18.5361 109.743 18.5361C109.743 18.5361 109.747 17.0418 109.747 16.4294C109.747 14.8255 110.703 14.1661 111.613 14.1661C112.525 14.1661 113.48 14.8255 113.48 16.4294C113.48 17.0418 113.478 18.1743 113.483 18.5796L113.482 18.5744ZM111.646 12.9136C107.958 12.9136 104.969 15.4535 104.969 18.5866C104.969 21.7197 107.96 24.2596 111.646 24.2596C115.334 24.2596 118.323 21.7197 118.323 18.5866C118.323 15.4535 115.334 12.9136 111.646 12.9136ZM31.5749 11.6158V8.51048H36.1536V11.6158H31.5749ZM31.5853 23.7064V13.6025L36.1537 13.6043V23.7065L31.5853 23.7064ZM54.5053 23.7064L54.5071 13.6233H52.0229V12.1238L54.5089 12.122L54.5054 10.0761H59.0772V12.1202H61.551V13.6233H59.0772L59.0807 23.7064L54.5053 23.7064ZM12.9935 23.7064L12.9953 8.51397H17.7289L24.277 19.1085L24.2735 8.51397H28.9706V23.7064H24.2805L17.6976 13.1119V23.7064H12.9935Z" fill="#0D0D0D"/>
</svg>
