<svg width="71" height="59" viewBox="0 0 71 59" fill="none" xmlns="http://www.w3.org/2000/svg">
<g clip-path="url(#clip0_1_570)">
<path d="M37.6925 8.73481C35.819 8.4479 34.2169 9.23834 32.8527 10.423C31.4538 11.7389 30.5675 13.4982 30.965 15.4748C31.2616 16.8233 32.6795 17.8328 33.9016 18.0648C36.1684 18.3513 38.2686 17.4016 39.7204 15.4748C40.6307 14.2179 41.1362 12.2761 40.3527 10.7839C39.7723 9.72434 38.8288 8.93226 37.6925 8.73481Z" fill="#0D0D0D"/>
<path d="M23.7832 46.4224L64.5348 50.9519V45.6866L56.3566 42.916L23.7832 46.4224Z" fill="#0D0D0D"/>
<path d="M11.3043 48.0375C10.098 48.8324 9.24669 50.1963 9.53729 51.7065C9.73197 52.8013 10.7105 53.6978 11.672 54.1278C12.1772 54.3838 12.4552 54.5268 13.1253 54.7779C13.4891 55.0299 12.7221 54.9925 12.4552 55.1015L0 56.9342V58.9661H71V53.4335L17.1616 47.3019C15.3126 46.963 12.7946 47.0655 11.3043 48.0375Z" fill="#0D0D0D"/>
<path d="M53.3184 11.7209C53.6272 11.2551 53.9995 11.106 54.4676 11.106C54.905 11.0885 55.5162 11.2901 56.0242 11.5047L58.8697 12.7633L58.1578 9.6369L53.3184 7.31641V11.7209H53.3184Z" fill="#0D0D0D"/>
<path d="M25.0969 42.7032C25.9101 42.5944 26.2856 41.5995 26.2872 40.5965L26.2929 37.3657L23.9277 36.4766L23.9199 40.9381C23.9183 41.9279 24.282 42.8113 25.0969 42.7032Z" fill="#0D0D0D"/>
<path d="M30.9162 37.3216L30.9077 41.9513L31.9273 41.8156C33.0441 41.6667 33.7476 40.5265 33.75 39.2162C33.7524 37.854 33.1099 36.9753 31.9448 37.159L30.9162 37.3216Z" fill="#0D0D0D"/>
<path d="M45.6304 32.9874C45.6394 32.9908 45.6474 32.9924 45.6548 32.9948L45.6321 32.9874H45.6304Z" fill="#0D0D0D"/>
<path d="M44.0384 35.2013C42.7907 35.3988 41.9999 36.5229 41.9966 38.0289C41.9935 39.5205 42.7826 40.4292 44.0302 40.2633C45.282 40.0976 46.1012 38.9548 46.1037 37.43C46.1061 35.8937 45.2917 35.003 44.0384 35.2013Z" fill="#0D0D0D"/>
<path d="M53.5037 22.3806L50.5223 21.2598L50.5117 21.2622L52.4844 24.3439L53.5037 22.3806Z" fill="#0D0D0D"/>
<path d="M66.3353 41.8196C64.9715 42.1064 64.0807 41.3685 63.7515 40.3086C63.6442 39.9885 63.784 39.8942 64.1335 39.8258C65.1812 39.6658 66.263 39.4324 67.3132 39.2105C67.8172 39.1236 67.7862 39.283 67.7667 39.5381C67.9797 40.4891 67.2985 41.5506 66.3353 41.8196ZM7.38833 42.378C7.07543 43.1485 6.3114 43.672 5.5189 43.6874C4.69999 43.7614 3.98232 43.4557 3.58117 42.5007C3.30157 41.7993 3.21829 40.7427 3.68682 40.8499C4.9629 41.0076 6.11906 41.3011 7.35574 41.5831C7.69022 41.6904 7.48212 42.1064 7.38833 42.378ZM46.8893 11.7903L48.5117 11.4144V13.1387L49.9284 12.7803V14.3433L48.5117 14.6538V18.6226L46.8893 18.9965V11.7903ZM62.4219 0L66.0549 37.9385C66.1102 38.3132 66.0745 38.8212 65.5868 38.943C65.2031 39.0895 64.9561 38.8211 64.8334 38.5676L63.7572 33.886L56.4917 30.9941L53.6299 31.4753C54.368 31.5614 55.0271 31.8515 55.5789 32.3426L54.5336 34.1672C53.868 33.5974 52.9186 33.6502 52.2277 33.7601C51.5629 33.8656 51.3077 34.2388 51.3068 34.6581C51.306 35.1654 51.7807 35.2661 52.6455 35.3393C53.9452 35.4791 55.7089 35.6035 55.7048 37.8362C55.7032 38.67 55.4984 39.4081 55.1082 40.0046L49.3504 40.7216C49.2416 40.6281 49.1383 40.5281 49.0399 40.4224L49.9934 38.6033C50.5429 39.2188 51.484 39.43 52.5448 39.2895C53.2405 39.1984 53.6664 38.7757 53.6673 38.3076C53.6681 37.7516 53.16 37.6021 52.3261 37.5014C51.0475 37.3633 49.3383 37.2884 49.3424 35.024C49.3432 34.7248 49.3797 34.4273 49.4513 34.1379L45.7036 33.0082C47.1894 33.4666 48.2062 34.9669 48.202 37.1249C48.1996 38.6872 47.6616 40.0599 46.7999 41.0385L41.3177 41.7213C40.5122 40.9808 40.0213 39.7974 40.0245 38.3148C40.0262 37.0135 40.4098 35.8301 41.0503 34.9003L38.6413 33.9948L38.6192 33.9981L38.6055 42.0586L36.8694 42.274L36.8799 36.2527L33.3966 35.201C34.6251 35.6238 35.4249 36.9355 35.4225 38.9724C35.4188 40.4931 34.9693 41.744 34.2314 42.6031L29.3067 43.2152L29.3193 36.3431L27.8843 35.8042L27.8694 35.8065L27.862 40.5833C27.8591 41.6748 27.6304 42.7064 27.1516 43.4834L23.0788 43.9905C22.624 43.3501 22.4119 42.4114 22.4135 41.3734L22.4205 37.3485L21.2634 36.9178H21.2619L21.4598 38.818L19.9041 39.0644L19.8943 44.3864L18.4801 44.5628L18.4895 39.2877L16.9772 39.5268L17.0744 38.5726L15.3102 38.0402L15.3066 38.0443C15.7089 38.1614 16.0698 38.3971 16.3794 38.7482L15.6906 40.2063C15.2501 39.7268 14.6227 39.7462 14.165 39.8194C13.7237 39.8893 13.5539 40.1868 13.553 40.529C13.5521 40.9418 13.8683 41.0353 14.4422 41.1142C15.3009 41.258 16.4644 41.3988 16.4611 43.2105C16.4603 43.8393 16.3437 44.3971 16.1198 44.857L12.1764 45.3472C12.1306 45.2944 12.0858 45.2399 12.044 45.1821L12.6793 43.7159C13.0446 44.2297 13.6696 44.4205 14.374 44.3272C14.8331 44.2669 15.116 43.9321 15.116 43.5508C15.1168 43.0989 14.7807 42.9673 14.2288 42.8673C13.3807 42.7275 12.2432 42.6299 12.2464 40.7808C12.2472 40.1558 12.4061 39.5446 12.7133 39.052L11.4357 38.5691L11.4166 36.9209L56.4918 28.9507L63.2404 31.6377L60.9377 21.6189L56.6836 19.9587L53.4585 26.2058L53.4536 28.6544L51.5338 28.9965L51.5371 26.5728L49.1921 22.875L47.057 22.2308L47.0489 22.2316C47.3496 22.3113 47.6033 22.4478 47.8032 22.6449C48.0136 22.853 48.1722 23.1111 48.2794 23.4207C48.3868 23.7296 48.4404 24.2513 48.4395 24.6309C48.438 25.3092 48.2925 26.0659 48.0047 26.5434C47.7479 26.9673 47.3854 27.4098 46.9155 27.6822L48.2064 29.5898L46.0297 29.9767L44.8528 28.2214L44.8495 30.1876L43.0257 30.5127L43.0369 23.5499L41.8341 23.098L41.8243 28.2132C41.8227 29.245 41.691 30.1314 41.2967 30.8207L36.5744 31.662C36.1981 31.1254 36.0746 30.3131 36.0761 29.3268L36.0843 24.8532L35.1638 24.5078L35.2991 26.3996L33.5082 26.7649L33.4993 32.2098L31.8777 32.4992L31.887 27.0961L30.1225 27.4558L30.2208 26.0907L29.3584 25.7672L29.3457 32.9497L27.3239 33.3105L24.5893 30.1911L24.5832 33.799L23.0352 34.0754L23.0462 27.7848L21.8209 27.3244L22.1075 29.0382L18.873 29.6981L18.8705 31.021L21.5173 30.4955L21.5137 32.2589L18.868 32.7636L18.8656 34.1283L22.1371 33.5227L22.0164 34.2567L17.3892 35.0808L17.3989 29.3177L15.6579 28.8036C16.0879 28.9402 16.4528 29.1856 16.7206 29.4567L16.0091 31.0202C15.6279 30.5683 15.087 30.523 14.6176 30.6186C13.7528 30.795 13.12 31.7492 13.1176 32.9529C13.1151 34.1558 13.7844 34.8207 14.6501 34.6598C15.1642 34.5638 15.6811 34.1753 16.0042 33.7308L16.7113 35.0174C16.6609 35.0881 16.6056 35.1597 16.55 35.2304L12.5616 35.9408C12.0158 35.3491 11.6769 34.4078 11.6785 33.2196C11.681 31.9565 12.0464 30.8268 12.6364 30.011L11.3567 29.5288V28.0003L56.916 17.7059L60.3629 19.1442L59.1008 13.7151L55.9699 12.3842V16.8952L54.3475 17.2199V14.111C54.3306 13.5834 54.58 12.7979 53.9606 12.9417C53.7046 12.9417 53.2665 13.2665 53.2308 13.5335V17.5234L51.4296 17.9181V10.7512L44.1422 7.58742L43.6546 7.4785C44.3007 8.46562 44.7013 9.56654 44.9282 10.7308C45.3662 14.8834 43.2693 18.2792 39.9482 20.5993L33.6788 22.1079C31.5948 22.3066 29.6031 21.5316 28.184 19.8946C26.5275 17.8655 26.3869 14.7367 27.1728 12.2215L25.7744 11.5433C27.7836 16.5887 21.354 20.3823 20.7107 22.1802L26.1247 21.0082V23.8497L12.8413 26.9797V25.1456L19.9227 17.0705C20.9688 15.8887 22.3005 14.8834 21.8933 13.6992C21.7401 13.2855 21.3 13.0838 20.9537 12.9591C19.8512 12.747 18.938 13.2127 18.1541 13.8922C17.5611 14.4896 17.3006 15.2622 17.2632 15.6539L12.9514 16.6411C13.1087 15.5141 13.3009 14.7018 13.6821 13.8065C14.8705 11.2344 17.473 9.27281 20.1308 8.90092C23.0337 8.41087 25.0104 10.3742 27.5406 11.2548C28.6923 9.20288 30.6362 7.04654 32.6583 5.9302C35.321 4.27981 39.2151 4.37161 42.0461 5.57173L50.734 9.32763L51.4825 9.59906V7.06237L53.2138 6.27399L57.8987 8.5396L55.9544 0.056942H13.9816L6.55231 39.79C6.42926 40.1866 5.96144 40.3818 5.59366 40.2916C5.23852 40.1493 5.06784 39.9127 5.06784 39.4121L6.81728 0.056942H0V55.694L3.49625 55.1909V46.203C3.52877 45.5195 4.21641 45.2325 4.9629 45.2325C5.88668 45.2325 6.55231 45.5942 6.55231 46.1169V54.7422L9.73275 54.2739C8.59647 53.1264 7.91572 51.5243 8.30388 49.8515C8.72001 48.0365 10.5517 46.5784 12.2503 46.2762L23.9374 44.8563L55.57 41.0824L56.8672 41.0076C59.3787 41.8546 61.6529 42.8592 64.223 43.6719C64.7081 43.9061 64.466 43.2932 64.5708 43.1111C64.6976 42.7876 65.0105 42.7194 65.2681 42.5926C66.1102 42.2887 67.3132 42.4137 67.8723 43.22L67.8918 51.2724L70.9999 51.7584V0H62.4219Z" fill="#0D0D0D"/>
<path d="M27.7516 28.0801L24.3217 26.791L24.292 26.7967L27.7468 30.9408L27.7516 28.0801Z" fill="#0D0D0D"/>
<path d="M46.3275 25.8243C46.4746 25.6512 46.6145 25.3614 46.6145 25.0095C46.6161 24.6567 46.5104 24.5011 46.3625 24.3751C46.1641 24.2081 45.9675 24.2248 45.388 24.3426L44.8589 24.4511L44.8555 26.3311L45.3838 26.2271C45.9739 26.1105 46.1414 26.0442 46.3275 25.8243Z" fill="#0D0D0D"/>
<path d="M38.9192 30.2728C39.9221 30.0867 40.0408 29.3333 40.0424 28.3197L40.0481 24.8263L37.7625 23.9668L37.7543 28.7606C37.7527 29.7652 37.9145 30.4593 38.9192 30.2728Z" fill="#0D0D0D"/>
<path d="M15.5637 28.7763L15.562 28.7754C15.5628 28.7763 15.5637 28.7763 15.5637 28.7763Z" fill="#0D0D0D"/>
<path d="M69.56 55.9648V57.8886H69.1762V56.5231H69.1722L68.7113 57.8886H68.3992L67.9392 56.5377H67.9351V57.8886H67.5498V55.9648H68.1277L68.565 57.2872H68.5699L68.9877 55.9648H69.56Z" fill="#0D0D0D"/>
<path d="M66.3567 57.8886V56.3216H65.8008V55.9648H67.3304V56.3216H66.7687V57.8886H66.3567Z" fill="#0D0D0D"/>
</g>
<defs>
<clipPath id="clip0_1_570">
<rect width="71" height="58.9653" fill="white"/>
</clipPath>
</defs>
</svg>
