<svg width="103" height="42" viewBox="0 0 103 42" fill="none" xmlns="http://www.w3.org/2000/svg">
<g clip-path="url(#clip0_1_551)">
<path d="M0 0H103V41.2H0V0Z" fill="#0D0D0D"/>
<path d="M87.1624 9.60337V3.29401H69.507L66.6003 24.3641L63.7287 3.29401H57.3616L58.0731 8.92028C57.3392 7.47828 54.7337 3.29401 48.9966 3.29401C48.9585 3.29153 42.6219 3.29401 42.6219 3.29401L42.5955 34.0053L37.9558 3.29401L29.6161 3.29153L24.8155 35.1117L24.8181 3.29401H16.8352L13.9584 21.1682L11.156 3.29401H3.17188V37.888H9.45961V21.2135L12.3201 37.888H15.6623L18.4824 21.2135V37.888H30.603L31.336 32.567H36.2157L36.9487 37.888L48.8495 37.8956H48.8581V37.888H48.873V26.6602L50.3302 26.4492L53.3504 37.8956H59.5063L59.5038 37.888H59.5213L55.5583 24.4753C57.5649 22.9965 59.8332 19.2473 59.2296 15.6589V15.6577C59.237 15.7043 62.9714 37.9111 62.9714 37.9111L70.2914 37.8884L75.2929 6.53459V37.8884H87.162V31.6674H81.5291V23.735H87.162V17.419H81.5291V9.60337H87.1624ZM32.0766 27.0827L33.8043 12.2915L35.5944 27.0827H32.0766ZM50.3504 20.2527C49.8675 20.4841 49.3649 20.5999 48.873 20.6011V9.47504C48.8806 9.47504 48.8921 9.4738 48.9045 9.4738C49.3948 9.47009 53.0663 9.62088 53.0663 14.9759C53.0663 17.777 51.8179 19.5437 50.3504 20.2527ZM99.8287 31.6616V37.8804H88.2486V3.28906H94.4847V31.6616H99.8287Z" fill="white"/>
</g>
<defs>
<clipPath id="clip0_1_551">
<rect width="103" height="41.2" fill="white"/>
</clipPath>
</defs>
</svg>
