<svg width="65" height="65" viewBox="0 0 65 65" fill="none" xmlns="http://www.w3.org/2000/svg">
<path d="M32.4999 0C14.5507 0 0 14.5507 0 32.5001C0 50.4494 14.5507 65.0001 32.4999 65.0001C50.4493 65.0001 65 50.4493 65 32.5001C65 14.5508 50.4493 0 32.4999 0ZM2.39083 32.5001C2.39083 29.0086 2.97776 25.608 4.13863 22.3674L7.26479 24.5387V48.9362C6.29297 47.4472 5.4554 45.8716 4.75596 44.2188C3.18718 40.5083 2.39083 36.5656 2.39083 32.5001ZM53.7904 53.7905C51.0246 56.5561 47.8044 58.7275 44.2193 60.244C40.5088 61.8136 36.5661 62.6092 32.5 62.6092C28.4346 62.6092 24.4918 61.8136 20.7815 60.244C17.1957 58.7275 13.976 56.5561 11.2097 53.7905C10.3375 52.9176 9.52434 52.0001 8.77212 51.0397H25.4115L31.9641 46.2959V20.4758L25.4115 15.5964H7.57659C8.6399 14.0324 9.85369 12.5665 11.2097 11.2098C13.976 8.44349 17.1957 6.27217 20.7815 4.7561C24.4918 3.18653 28.4346 2.39098 32.5 2.39098C36.5661 2.39098 40.5089 3.18653 44.2193 4.7561C47.8043 6.27217 51.0246 8.44349 53.7904 11.2098C55.1471 12.5664 56.3601 14.0324 57.4235 15.5964H52.6661L51.5974 17.9562L48.4209 15.5964H41.0309L34.5255 20.4758V46.2959L41.0003 51.0397H56.2287C55.4765 52.0001 54.6631 52.9176 53.7904 53.7905ZM13.9082 23.7092H19.859C21.5241 23.7092 22.8733 25.0584 22.8733 26.7234V40.0666C22.8733 41.731 21.5241 43.0807 19.859 43.0807H16.2889V25.4345L13.9082 23.7092ZM58.5294 47.6478V38.4474H50.1077V43.0807H46.47C44.8787 43.0807 43.5891 41.7912 43.5891 40.2V25.4379L41.2069 23.7092H50.1077V28.7666H57.8274L59.3629 18.8834C59.6774 19.5034 59.9717 20.1364 60.2439 20.7807C61.8135 24.4911 62.6092 28.4339 62.6092 32.5C62.6092 36.5655 61.8135 40.5082 60.2439 44.2187C59.7432 45.4027 59.1711 46.5466 58.5294 47.6478Z" fill="#0D0D0D"/>
</svg>
