<svg width="24" height="24" viewBox="0 0 24 24" fill="none" xmlns="http://www.w3.org/2000/svg">
<path d="M23.0625 1.6875C22.36 1.6875 1.64006 1.6875 0.9375 1.6875C0.419719 1.6875 0 2.10722 0 2.625V21.375C0 21.8928 0.419719 22.3125 0.9375 22.3125H23.0625C23.5803 22.3125 24 21.8928 24 21.375V2.625C24 2.10722 23.5803 1.6875 23.0625 1.6875ZM9.1875 3.5625H14.8125V10.6472L12.3292 9.71592C12.117 9.63633 11.883 9.63633 11.6708 9.71592L9.1875 10.6472V3.5625ZM22.125 20.4375H1.875V3.5625H7.3125V12C7.3125 12.6537 7.96664 13.1075 8.57916 12.8778L12 11.595L15.4208 12.8778C16.0331 13.1075 16.6875 12.654 16.6875 12V3.5625H22.125V20.4375Z" fill="#0D0D0D"/>
</svg>
