<svg width="24" height="24" viewBox="0 0 24 24" fill="none" xmlns="http://www.w3.org/2000/svg">
<g clip-path="url(#clip0_1_917)">
<path d="M19.7023 1.43431C15.7362 -0.042048 15.9268 0.000232765 15.6874 0.000232765C7.8303 0.00117026 8.29169 -0.00379845 8.19452 0.00843581C8.0155 0.0312168 8.14113 0.00356087 4.29746 1.43431C1.72203 2.39463 0 4.85339 0 7.62316V12.0001C0 12.5179 0.419715 12.9376 0.937491 12.9376H3.7689V23.0625C3.7689 23.5803 4.18862 24 4.70639 24H19.2933C19.8111 24 20.2308 23.5803 20.2308 23.0625V12.9376H23.0622C23.58 12.9376 23.9997 12.5179 23.9997 12.0001V7.62316C23.9998 4.87453 22.2977 2.40204 19.7023 1.43431ZM14.3265 1.87521L14.218 2.15965C13.8694 3.07366 12.9781 3.68771 11.9999 3.68771C11.0217 3.68771 10.1303 3.07366 9.78178 2.15965L9.67331 1.87521H14.3265ZM22.1248 11.0626H20.2309V8.31264C20.2309 7.79486 19.8112 7.37514 19.2934 7.37514C18.7756 7.37514 18.3559 7.79486 18.3559 8.31264V22.125H5.64388V8.31268C5.64388 7.79491 5.22417 7.37519 4.70639 7.37519C4.18862 7.37519 3.7689 7.79491 3.7689 8.31268V11.0627H1.87498V7.62321C1.87498 5.65865 3.11177 3.87755 4.95248 3.19117L7.768 2.14132C7.96089 2.52058 8.17914 3.84127 9.58936 4.81284C11.0359 5.80935 12.9526 5.81704 14.4103 4.81284C15.8207 3.84118 16.0418 2.51458 16.2317 2.14132L19.0472 3.19117C20.888 3.87755 22.1247 5.65865 22.1247 7.62321V11.0626H22.1248Z" fill="#0D0D0D"/>
</g>
<defs>
<clipPath id="clip0_1_917">
<rect width="24" height="24" fill="white"/>
</clipPath>
</defs>
</svg>
