<svg width="1227" height="600" viewBox="0 0 1227 600" fill="none" xmlns="http://www.w3.org/2000/svg">
<g opacity="0.1">
<path d="M998.31 -62.5815L1152.27 40.483" stroke="#F8F8F8" stroke-width="8" stroke-linecap="round"/>
<path d="M1237.57 -145.314L1335.68 11.8504" stroke="#F8F8F8" stroke-width="8" stroke-linecap="round"/>
<path d="M788.796 25.6914L943.685 127.356" stroke="#F8F8F8" stroke-width="8" stroke-linecap="round"/>
<path d="M248.696 -64.9966L403.585 36.668" stroke="#F8F8F8" stroke-width="8" stroke-linecap="round"/>
<path d="M1018.79 189.042L1173.68 290.706" stroke="#F8F8F8" stroke-width="8" stroke-linecap="round"/>
<path d="M606.316 -72.2993L681.005 97.2521" stroke="#F8F8F8" stroke-width="8" stroke-linecap="round"/>
<path d="M66.2156 -162.987L140.905 6.56409" stroke="#F8F8F8" stroke-width="8" stroke-linecap="round"/>
<path d="M572.561 228.14L725.094 333.306" stroke="#F8F8F8" stroke-width="8" stroke-linecap="round"/>
<path d="M32.4607 137.452L184.994 242.618" stroke="#F8F8F8" stroke-width="8" stroke-linecap="round"/>
<path d="M670.335 452.604L822.868 557.769" stroke="#F8F8F8" stroke-width="8" stroke-linecap="round"/>
<path d="M130.235 361.916L282.768 467.081" stroke="#F8F8F8" stroke-width="8" stroke-linecap="round"/>
<path d="M899.213 559.355L1051.75 664.521" stroke="#F8F8F8" stroke-width="8" stroke-linecap="round"/>
<path d="M359.113 468.667L511.646 573.833" stroke="#F8F8F8" stroke-width="8" stroke-linecap="round"/>
<path d="M1123.27 543.325L1307.93 528.296" stroke="#F8F8F8" stroke-width="8" stroke-linecap="round"/>
<path d="M800.685 357.154L985.348 342.125" stroke="#F8F8F8" stroke-width="8" stroke-linecap="round"/>
<path d="M260.585 266.466L445.248 251.437" stroke="#F8F8F8" stroke-width="8" stroke-linecap="round"/>
<path d="M626.634 597.413L664.436 778.789" stroke="#F8F8F8" stroke-width="8" stroke-linecap="round"/>
<path d="M86.5345 506.725L124.336 688.101" stroke="#F8F8F8" stroke-width="8" stroke-linecap="round"/>
<path d="M977.951 21.3961C993.413 17.8952 1007.64 7.2714 1022.7 1.81521C1039.93 -4.42714 1059.2 -10.34 1074.65 -20.3105C1080.91 -24.3441 1086.91 -28.0145 1093.46 -31.6207C1100.92 -35.7329 1107.18 -41.9487 1114.66 -45.8292C1120.03 -48.613 1125.82 -51.1309 1131.91 -51.1309" stroke="#F8F8F8" stroke-width="8" stroke-linecap="round"/>
<path d="M769.198 109.851C784.628 106.21 798.756 95.4579 813.765 89.8654C830.937 83.4671 850.156 77.3798 865.519 67.2697C871.734 63.1795 877.709 59.4547 884.219 55.7894C891.643 51.6097 897.848 45.3374 905.296 41.3893C910.639 38.5569 916.402 35.9867 922.495 35.9314" stroke="#F8F8F8" stroke-width="8" stroke-linecap="round"/>
<path d="M229.099 19.1631C244.528 15.5223 258.656 4.7699 273.665 -0.822586C290.837 -7.22086 310.056 -13.3082 325.419 -23.4183C331.635 -27.5085 337.609 -31.2333 344.119 -34.8986C351.543 -39.0783 357.748 -45.3506 365.196 -49.2987C370.54 -52.1311 376.302 -54.7013 382.396 -54.7565" stroke="#F8F8F8" stroke-width="8" stroke-linecap="round"/>
<path d="M999.193 273.202C1014.62 269.561 1028.75 258.808 1043.76 253.216C1060.93 246.818 1080.15 240.73 1095.51 230.62C1101.73 226.53 1107.7 222.805 1114.21 219.14C1121.64 214.96 1127.84 208.688 1135.29 204.74C1140.63 201.907 1146.4 199.337 1152.49 199.282" stroke="#F8F8F8" stroke-width="8" stroke-linecap="round"/>
<path d="M544.1 -12.3319C559.028 -6.99586 576.732 -8.33543 592.369 -4.86589C610.259 -0.896437 629.697 4.44741 648.088 4.31843C655.529 4.26625 662.568 4.38972 670.025 4.8544C678.528 5.3843 687.146 3.49527 695.544 4.2328C701.568 4.7619 707.802 5.73921 712.945 9.00657" stroke="#F8F8F8" stroke-width="8" stroke-linecap="round"/>
<path d="M551.051 311.833C566.559 308.545 580.928 298.117 596.061 292.867C613.374 286.862 632.726 281.214 648.316 271.456C654.623 267.509 660.68 263.921 667.272 260.405C674.789 256.395 681.136 250.266 688.672 246.488C694.078 243.778 699.898 241.34 705.991 241.424" stroke="#F8F8F8" stroke-width="8" stroke-linecap="round"/>
<path d="M10.9504 221.145C26.4589 217.857 40.8283 207.429 55.9607 202.179C73.2736 196.174 92.6261 190.526 108.216 180.768C114.522 176.821 120.58 173.233 127.172 169.717C134.689 165.707 141.035 159.578 148.572 155.8C153.978 153.09 159.798 150.652 165.891 150.736" stroke="#F8F8F8" stroke-width="8" stroke-linecap="round"/>
<path d="M648.828 536.297C664.336 533.008 678.706 522.581 693.838 517.331C711.151 511.326 730.504 505.678 746.093 495.92C752.4 491.972 758.458 488.385 765.049 484.869C772.567 480.859 778.913 474.73 786.449 470.952C791.855 468.242 797.675 465.804 803.768 465.887" stroke="#F8F8F8" stroke-width="8" stroke-linecap="round"/>
<path d="M108.727 445.609C124.236 442.32 138.605 431.893 153.738 426.643C171.05 420.638 190.403 414.99 205.992 405.232C212.299 401.284 218.357 397.697 224.949 394.181C232.466 390.171 238.812 384.042 246.349 380.264C251.755 377.554 257.575 375.116 263.668 375.199" stroke="#F8F8F8" stroke-width="8" stroke-linecap="round"/>
<path d="M877.706 643.048C893.215 639.759 907.584 629.332 922.717 624.082C940.029 618.077 959.382 612.429 974.971 602.671C981.278 598.723 987.336 595.136 993.928 591.62C1001.45 587.61 1007.79 581.481 1015.33 577.703C1020.73 574.993 1026.55 572.555 1032.65 572.638" stroke="#F8F8F8" stroke-width="8" stroke-linecap="round"/>
<path d="M337.606 552.36C353.115 549.071 367.484 538.644 382.616 533.394C399.929 527.389 419.282 521.741 434.871 511.983C441.178 508.035 447.236 504.448 453.828 500.932C461.345 496.922 467.691 490.793 475.227 487.015C480.634 484.305 486.454 481.867 492.547 481.95" stroke="#F8F8F8" stroke-width="8" stroke-linecap="round"/>
<path d="M1159.55 621.751C1169.48 609.394 1174.01 592.228 1182.41 578.591C1192.02 562.988 1203.44 546.373 1209.34 528.954C1211.73 521.907 1214.15 515.297 1217.03 508.404C1220.32 500.543 1221.36 491.782 1224.81 484.089C1227.28 478.57 1230.24 473 1235.02 469.211" stroke="#F8F8F8" stroke-width="8" stroke-linecap="round"/>
<path d="M836.965 435.581C846.896 423.224 851.43 406.058 859.83 392.42C869.441 376.818 880.857 360.202 886.759 342.784C889.147 335.737 891.57 329.126 894.452 322.233C897.737 314.373 898.776 305.611 902.223 297.919C904.697 292.4 907.662 286.83 912.434 283.041" stroke="#F8F8F8" stroke-width="8" stroke-linecap="round"/>
<path d="M296.865 344.893C306.796 332.536 311.33 315.37 319.73 301.732C329.341 286.13 340.757 269.514 346.66 252.096C349.047 245.049 351.47 238.438 354.352 231.545C357.638 223.685 358.676 214.923 362.123 207.231C364.597 201.712 367.562 196.142 372.334 192.353" stroke="#F8F8F8" stroke-width="8" stroke-linecap="round"/>
<path d="M553.308 643.134C566.801 651.457 584.396 653.828 598.97 660.474C615.643 668.076 633.546 677.345 651.562 681.043C658.85 682.539 665.71 684.124 672.907 686.129C681.114 688.415 689.937 688.359 697.997 690.827C703.78 692.597 709.675 694.849 714.026 699.115" stroke="#F8F8F8" stroke-width="8" stroke-linecap="round"/>
<path d="M13.2084 552.446C26.7009 560.769 44.2963 563.14 58.8698 569.786C75.5432 577.388 93.446 586.657 111.462 590.355C118.75 591.851 125.61 593.436 132.807 595.441C141.014 597.727 149.837 597.671 157.897 600.139C163.68 601.909 169.575 604.161 173.926 608.427" stroke="#F8F8F8" stroke-width="8" stroke-linecap="round"/>
<path d="M1086.11 -84.2129C1078.99 -54.2888 1071.78 -24.2928 1063.84 5.42077C1060.66 17.3213 1057.35 29.1824 1054.58 41.1894C1052.94 48.3038 1052.54 55.3169 1047.93 60.841" stroke="#F8F8F8" stroke-width="8" stroke-linecap="round"/>
<path d="M1326.51 -129.013C1307.74 -104.644 1288.86 -80.2483 1269.42 -56.4111C1261.64 -46.8641 1253.75 -37.407 1246.3 -27.5925C1241.89 -21.7772 1238.64 -15.5469 1232.18 -12.3983" stroke="#F8F8F8" stroke-width="8" stroke-linecap="round"/>
<path d="M876.391 3.26577C869.548 33.2532 862.611 63.3132 854.938 93.0976C851.864 105.026 848.659 116.917 846.002 128.949C844.428 136.078 844.089 143.094 839.536 148.66" stroke="#F8F8F8" stroke-width="8" stroke-linecap="round"/>
<path d="M336.291 -87.4222C329.448 -57.4348 322.511 -27.3747 314.838 2.40962C311.764 14.3385 308.559 26.2291 305.902 38.2607C304.328 45.3897 303.989 52.4061 299.436 57.9717" stroke="#F8F8F8" stroke-width="8" stroke-linecap="round"/>
<path d="M1106.39 166.616C1099.54 196.603 1092.61 226.663 1084.93 256.448C1081.86 268.377 1078.65 280.267 1076 292.299C1074.42 299.428 1074.08 306.444 1069.53 312.01" stroke="#F8F8F8" stroke-width="8" stroke-linecap="round"/>
<path d="M692.021 -43.4791C669.97 -22.0359 647.8 -0.582604 625.163 20.2386C616.096 28.5777 606.939 36.813 598.166 45.4646C592.968 50.5909 588.868 56.2947 582.02 58.489" stroke="#F8F8F8" stroke-width="8" stroke-linecap="round"/>
<path d="M660.643 207.716C653.119 237.539 645.499 267.434 637.149 297.036C633.805 308.891 630.33 320.706 627.4 332.674C625.663 339.765 625.165 346.772 620.486 352.233" stroke="#F8F8F8" stroke-width="8" stroke-linecap="round"/>
<path d="M120.543 117.028C113.018 146.851 105.399 176.746 97.0492 206.348C93.705 218.203 90.2298 230.018 87.2994 241.986C85.5632 249.077 85.0646 256.084 80.3859 261.545" stroke="#F8F8F8" stroke-width="8" stroke-linecap="round"/>
<path d="M758.42 432.18C750.896 462.004 743.277 491.898 734.927 521.5C731.583 533.356 728.107 545.17 725.177 557.138C723.441 564.23 722.942 571.237 718.264 576.697" stroke="#F8F8F8" stroke-width="8" stroke-linecap="round"/>
<path d="M218.321 341.492C210.796 371.316 203.177 401.21 194.827 430.812C191.483 442.668 188.008 454.482 185.077 466.45C183.341 473.542 182.842 480.549 178.164 486.009" stroke="#F8F8F8" stroke-width="8" stroke-linecap="round"/>
<path d="M987.298 538.93C979.774 568.754 972.154 598.649 963.805 628.25C960.46 640.106 956.985 651.921 954.055 663.889C952.319 670.98 951.82 677.987 947.141 683.447" stroke="#F8F8F8" stroke-width="8" stroke-linecap="round"/>
<path d="M447.198 448.243C439.674 478.066 432.054 507.961 423.704 537.563C420.36 549.418 416.885 561.233 413.955 573.201C412.218 580.292 411.72 587.299 407.041 592.759" stroke="#F8F8F8" stroke-width="8" stroke-linecap="round"/>
<path d="M1178.57 471.788C1191.61 499.647 1204.62 527.62 1216.87 555.829C1221.78 567.127 1226.56 578.476 1231.86 589.599C1235.01 596.19 1239.05 601.932 1238.88 609.121" stroke="#F8F8F8" stroke-width="8" stroke-linecap="round"/>
<path d="M855.99 285.617C869.027 313.476 882.035 341.45 894.292 369.659C899.201 380.957 903.982 392.306 909.283 403.429C912.424 410.02 916.47 415.762 916.3 422.951" stroke="#F8F8F8" stroke-width="8" stroke-linecap="round"/>
<path d="M315.89 194.929C328.927 222.788 341.934 250.762 354.192 278.971C359.101 290.269 363.882 301.618 369.183 312.741C372.323 319.332 376.369 325.074 376.199 332.263" stroke="#F8F8F8" stroke-width="8" stroke-linecap="round"/>
<path d="M164.373 552.737C138.345 569.126 112.199 585.501 85.7266 601.16C75.1242 607.431 64.4554 613.583 54.075 620.221C47.9244 624.154 42.7278 628.881 35.5734 629.603" stroke="#F8F8F8" stroke-width="8" stroke-linecap="round"/>
</g>
</svg>
