<svg width="1220" height="331" viewBox="0 0 1220 331" fill="none" xmlns="http://www.w3.org/2000/svg">
<rect y="15" width="1220" height="301" fill="#FFF6F6"/>
<path d="M0 13.9124C290.577 12.123 373.6 -0.850549 547.731 0.0441728C721.862 0.938895 766.607 11.9738 908.932 9.1405C1025.39 6.82212 1106.84 13.7893 1175.72 15.2545H1220C1205.7 15.6339 1191.02 15.5799 1175.72 15.2545H0V13.9124Z" fill="#FFF6F6"/>
<path d="M1220 316.607C929.423 318.396 846.4 331.37 672.269 330.475C498.138 329.58 453.393 318.545 311.068 321.379C194.61 323.697 113.163 316.73 44.2817 315.265H0C14.3047 314.885 28.9833 314.939 44.2817 315.265H1220V316.607Z" fill="#FFF6F6"/>
</svg>
