<svg width="336" height="482" viewBox="0 0 336 482" fill="none" xmlns="http://www.w3.org/2000/svg">
<path fill-rule="evenodd" clip-rule="evenodd" d="M92.0932 3.45699C69.6036 5.71451 43.3173 8.35314 1 8.96467V9.82944H323.841C317.903 9.53306 311.625 8.88727 304.816 8.18689C289.937 6.65627 272.523 4.86492 250.584 5.88982C229.86 6.85797 216.67 5.31319 201.722 3.56242C188.481 2.01165 173.861 0.299265 151.402 0.0284634C128.946 -0.242297 112.008 1.45793 92.0932 3.45699Z" fill="#FFF6F6"/>
<path fill-rule="evenodd" clip-rule="evenodd" d="M231.748 478.373C254.237 476.115 280.524 473.476 322.841 472.865V472H0.000152588C5.93796 472.297 12.2158 472.942 19.0244 473.643C33.9037 475.173 51.3179 476.965 73.2571 475.94C93.9813 474.972 107.171 476.516 122.119 478.267C135.36 479.818 149.98 481.53 172.439 481.801C194.895 482.072 211.833 480.372 231.748 478.373Z" fill="#FFF6F6"/>
<rect x="1" y="10" width="335" height="462" fill="#FFF6F6"/>
</svg>
