<svg width="18" height="18" viewBox="0 0 18 18" fill="none" xmlns="http://www.w3.org/2000/svg">
<g clip-path="url(#clip0_1_816)">
<path opacity="0.4" d="M0.645029 9.80488C0.642838 8.33833 1.03975 6.89882 1.79323 5.64062C2.47246 6.91667 3.47061 7.99503 4.69047 8.77066C5.91032 9.54629 7.31027 9.99274 8.75395 10.0665C10.1976 10.1403 11.6358 9.83889 12.9284 9.19166C14.2209 8.54443 15.3238 7.57344 16.1296 6.37328C16.6307 7.44778 16.8896 8.61927 16.8879 9.80488C16.8879 14.2901 13.2521 17.926 8.76682 17.926C4.28159 17.926 0.645029 14.2901 0.645029 9.80488Z" fill="#FF5050"/>
<path d="M9.0001 17.9999C7.22027 17.9996 5.48048 17.4716 4.00069 16.4827C2.5209 15.4937 1.36755 14.0882 0.686477 12.4439C0.00540025 10.7995 -0.172827 8.9901 0.174327 7.24445C0.521481 5.4988 1.37843 3.89528 2.63683 2.63661C4.09994 1.17352 6.02242 0.25912 8.08069 0.0473059C10.139 -0.164508 12.2074 0.339196 13.9378 1.47364C14.0367 1.53591 14.1221 1.61726 14.1892 1.71295C14.2563 1.80864 14.3036 1.91674 14.3283 2.03092C14.3531 2.14511 14.3549 2.26309 14.3335 2.37797C14.3122 2.49285 14.2681 2.60232 14.204 2.69997C14.1398 2.79762 14.0568 2.88151 13.9599 2.94671C13.8629 3.01191 13.7539 3.05712 13.6393 3.0797C13.5246 3.10228 13.4066 3.10177 13.2922 3.07821C13.1778 3.05465 13.0692 3.0085 12.9728 2.94247C11.7931 2.16713 10.4118 1.75518 9.0001 1.75771C5.00776 1.75771 1.75792 5.00649 1.75792 8.99989C1.75792 12.9933 5.00671 16.2421 9.0001 16.2421C12.9935 16.2421 16.2423 12.9933 16.2423 8.99989C16.2429 8.29422 16.1405 7.59223 15.9382 6.91618C15.905 6.80561 15.8939 6.68959 15.9056 6.57474C15.9173 6.45989 15.9515 6.34846 16.0062 6.24682C16.1167 6.04154 16.3043 5.88858 16.5276 5.82159C16.7509 5.7546 16.9917 5.77906 17.1969 5.88959C17.4022 6.00012 17.5552 6.18768 17.6222 6.41099C18.0253 7.75513 18.1087 9.17491 17.8656 10.557C17.6225 11.9391 17.0596 13.2452 16.222 14.3711C15.3843 15.497 14.2951 16.4115 13.0412 17.0415C11.7873 17.6716 10.4034 17.9998 9.0001 17.9999Z" fill="#0D0D0D"/>
<path d="M7.68295 13.3004C7.52039 13.3009 7.35937 13.269 7.20922 13.2067C7.05908 13.1444 6.92279 13.053 6.80826 12.9376L3.6681 9.79816C3.58648 9.71654 3.52173 9.61964 3.47756 9.51299C3.43338 9.40634 3.41064 9.29204 3.41064 9.1766C3.41064 8.94347 3.50326 8.71989 3.6681 8.55504C3.83295 8.39019 4.05654 8.29758 4.28967 8.29758C4.5228 8.29758 4.74638 8.39019 4.91123 8.55504L7.68295 11.3268L13.0907 5.91762C13.2555 5.75277 13.4791 5.66016 13.7122 5.66016C13.9454 5.66016 14.169 5.75277 14.3338 5.91762C14.4987 6.08246 14.5913 6.30605 14.5913 6.53918C14.5913 6.77231 14.4987 6.99589 14.3338 7.16074L8.55798 12.9376C8.44333 13.0529 8.30697 13.1443 8.15678 13.2066C8.00658 13.2689 7.84554 13.3008 7.68295 13.3004Z" fill="#0D0D0D"/>
</g>
<defs>
<clipPath id="clip0_1_816">
<rect width="18" height="18" fill="white"/>
</clipPath>
</defs>
</svg>
