<svg width="18" height="12" viewBox="0 0 18 12" fill="none" xmlns="http://www.w3.org/2000/svg">
<path d="M11.5436 0.520098L10.7769 1.28674C10.5913 1.4724 10.5943 1.77439 10.7837 1.95627L13.9367 4.98431H0.46875C0.209883 4.98431 0 5.19419 0 5.45306V6.54681C0 6.80568 0.209883 7.01556 0.46875 7.01556H13.9367L10.7837 10.0436C10.5943 10.2255 10.5913 10.5275 10.777 10.7131L11.5436 11.4798C11.7266 11.6628 12.0234 11.6628 12.2065 11.4798L17.3549 6.33138C17.538 6.14833 17.538 5.85154 17.3549 5.66845L12.2064 0.520098C12.0234 0.337051 11.7266 0.337051 11.5436 0.520098Z" fill="white"/>
</svg>
