<svg width="18" height="18" viewBox="0 0 18 18" fill="none" xmlns="http://www.w3.org/2000/svg">
<g clip-path="url(#clip0_1_626)">
<path d="M17.9955 18.0002V17.9994H18V11.3979C18 8.16842 17.3047 5.68066 13.5292 5.68066C11.7142 5.68066 10.4962 6.67667 9.99895 7.62092H9.94645V5.98216H6.3667V17.9994H10.0942V12.0489C10.0942 10.4822 10.3912 8.96717 12.3315 8.96717C14.2432 8.96717 14.2717 10.7552 14.2717 12.1494V18.0002H17.9955Z" fill="white"/>
<path d="M0.296875 5.98242H4.02888V17.9997H0.296875V5.98242Z" fill="white"/>
<path d="M2.1615 0C0.96825 0 0 0.96825 0 2.1615C0 3.35475 0.96825 4.34325 2.1615 4.34325C3.35475 4.34325 4.323 3.35475 4.323 2.1615C4.32225 0.96825 3.354 0 2.1615 0V0Z" fill="white"/>
</g>
<defs>
<clipPath id="clip0_1_626">
<rect width="18" height="18" fill="white"/>
</clipPath>
</defs>
</svg>
