<svg width="18" height="16" viewBox="0 0 18 16" fill="none" xmlns="http://www.w3.org/2000/svg">
<path d="M18 2.41887C17.3306 2.7125 16.6174 2.90712 15.8737 3.00162C16.6388 2.54487 17.2226 1.82712 17.4971 0.962C16.7839 1.38725 15.9964 1.68763 15.1571 1.85525C14.4799 1.13413 13.5146 0.6875 12.4616 0.6875C10.4186 0.6875 8.77387 2.34575 8.77387 4.37863C8.77387 4.67113 8.79862 4.95237 8.85938 5.22012C5.7915 5.0705 3.07687 3.60013 1.25325 1.36025C0.934875 1.91263 0.748125 2.54488 0.748125 3.2255C0.748125 4.5035 1.40625 5.63637 2.38725 6.29225C1.79437 6.281 1.21275 6.10888 0.72 5.83775C0.72 5.849 0.72 5.86363 0.72 5.87825C0.72 7.6715 1.99912 9.161 3.6765 9.50412C3.37612 9.58625 3.04875 9.62562 2.709 9.62562C2.47275 9.62562 2.23425 9.61213 2.01038 9.56262C2.4885 11.024 3.84525 12.0984 5.4585 12.1332C4.203 13.1154 2.60888 13.7071 0.883125 13.7071C0.5805 13.7071 0.29025 13.6936 0 13.6565C1.63462 14.7106 3.57188 15.3125 5.661 15.3125C12.4515 15.3125 16.164 9.6875 16.164 4.81175C16.164 4.64862 16.1584 4.49113 16.1505 4.33475C16.8829 3.815 17.4982 3.16587 18 2.41887Z" fill="white"/>
</svg>
