<svg width="18" height="14" viewBox="0 0 18 14" fill="none" xmlns="http://www.w3.org/2000/svg">
<path d="M17.235 2.005C16.7467 1.1365 16.2169 0.97675 15.138 0.916C14.0603 0.842875 11.3501 0.8125 9.00225 0.8125C6.64987 0.8125 3.93862 0.842875 2.862 0.914875C1.78537 0.97675 1.25437 1.13537 0.761625 2.005C0.25875 2.87238 0 4.36638 0 6.99663C0 6.99888 0 7 0 7C0 7.00225 0 7.00338 0 7.00338V7.00563C0 9.62463 0.25875 11.1299 0.761625 11.9882C1.25437 12.8568 1.78425 13.0143 2.86087 13.0874C3.93863 13.1504 6.64987 13.1875 9.00225 13.1875C11.3501 13.1875 14.0602 13.1504 15.1391 13.0885C16.218 13.0154 16.7479 12.8579 17.2361 11.9894C17.7435 11.131 18 9.62575 18 7.00675C18 7.00675 18 7.00338 18 7.00113C18 7.00113 18 6.99888 18 6.99775C18 4.36638 17.7435 2.87238 17.235 2.005ZM6.75 10.375V3.625L12.375 7L6.75 10.375Z" fill="white"/>
</svg>
