<svg width="20" height="20" viewBox="0 0 20 20" fill="none" xmlns="http://www.w3.org/2000/svg">
<path d="M14.6875 1.40625C12.9741 1.40625 11.485 2.19055 10.381 3.6743C10.2392 3.86496 10.1125 4.0557 10 4.24074C9.8875 4.05566 9.76086 3.86496 9.61898 3.6743C8.51508 2.19055 7.0259 1.40625 5.3125 1.40625C2.1393 1.40625 0 3.9552 0 7.08016C0 11.1585 3.87625 13.7262 9.49984 18.4127C9.64469 18.5334 9.82234 18.5938 10 18.5938C10.1777 18.5938 10.3553 18.5334 10.5002 18.4127C16.1224 13.7275 20 11.159 20 7.08016C20 3.95703 17.8625 1.40625 14.6875 1.40625ZM10 16.7971C4.8218 12.5131 1.5625 10.2428 1.5625 7.08016C1.5625 5.03707 2.85063 2.96875 5.3125 2.96875C6.51559 2.96875 7.53367 3.50785 8.33852 4.57113C8.97617 5.41359 9.24117 6.28309 9.24973 6.31152C9.34656 6.64527 9.65234 6.875 10 6.875C10.3482 6.875 10.6544 6.64457 10.7507 6.30996C10.7604 6.27656 11.7471 2.96875 14.6875 2.96875C17.1494 2.96875 18.4375 5.03707 18.4375 7.08016C18.4375 10.2459 15.1618 12.5269 10 16.7971Z" fill="black"/>
</svg>
