<svg width="20" height="20" viewBox="0 0 20 20" fill="none" xmlns="http://www.w3.org/2000/svg">
<path d="M18.0915 16.9085L15.7332 14.5585C17.0117 12.979 17.6354 10.9692 17.4756 8.94349C17.3159 6.91774 16.3849 5.03052 14.8747 3.67097C13.3645 2.31143 11.3901 1.58323 9.35878 1.63652C7.32745 1.68982 5.394 2.52055 3.95714 3.95741C2.52027 5.39428 1.68954 7.32772 1.63625 9.35906C1.58295 11.3904 2.31116 13.3647 3.6707 14.875C5.03024 16.3852 6.91747 17.3162 8.94321 17.4759C10.969 17.6356 12.9788 17.012 14.5582 15.7335L16.9082 18.0918C16.9857 18.1699 17.0779 18.2319 17.1794 18.2742C17.281 18.3165 17.3899 18.3383 17.4999 18.3383C17.6099 18.3383 17.7188 18.3165 17.8204 18.2742C17.9219 18.2319 18.0141 18.1699 18.0915 18.0918C18.1697 18.0144 18.2317 17.9222 18.274 17.8206C18.3163 17.7191 18.338 17.6102 18.338 17.5002C18.338 17.3901 18.3163 17.2812 18.274 17.1797C18.2317 17.0781 18.1697 16.986 18.0915 16.9085ZM3.33322 9.58349C3.33322 8.34736 3.69977 7.13898 4.38653 6.11118C5.07329 5.08337 6.04941 4.28229 7.19144 3.80924C8.33348 3.3362 9.59015 3.21242 10.8025 3.45358C12.0149 3.69474 13.1286 4.28999 14.0026 5.16407C14.8767 6.03815 15.472 7.15179 15.7131 8.36418C15.9543 9.57656 15.8305 10.8332 15.3575 11.9753C14.8844 13.1173 14.0833 14.0934 13.0555 14.7802C12.0277 15.4669 10.8194 15.8335 9.58322 15.8335C7.92561 15.8335 6.3359 15.175 5.1638 14.0029C3.9917 12.8308 3.33322 11.2411 3.33322 9.58349Z" fill="black"/>
</svg>
