<svg width="329" height="247" viewBox="0 0 329 247" fill="none" xmlns="http://www.w3.org/2000/svg">
<path d="M224.74 24.7725L259.23 47.8605" stroke="#F8F8F8" stroke-width="3" stroke-linecap="round"/>
<path d="M278.337 6.23926L300.315 41.4465" stroke="#F8F8F8" stroke-width="3" stroke-linecap="round"/>
<path d="M284.979 62.1191L319.677 84.8935" stroke="#F8F8F8" stroke-width="3" stroke-linecap="round"/>
<path d="M177.806 44.5469L212.503 67.3213" stroke="#F8F8F8" stroke-width="3" stroke-linecap="round"/>
<path d="M56.8154 24.2314L91.5128 47.0058" stroke="#F8F8F8" stroke-width="3" stroke-linecap="round"/>
<path d="M229.328 81.1396L264.025 103.914" stroke="#F8F8F8" stroke-width="3" stroke-linecap="round"/>
<path d="M136.928 22.5957L153.659 60.5777" stroke="#F8F8F8" stroke-width="3" stroke-linecap="round"/>
<path d="M15.9375 2.28027L32.6691 40.2623" stroke="#F8F8F8" stroke-width="3" stroke-linecap="round"/>
<path d="M129.366 89.8984L163.535 113.457" stroke="#F8F8F8" stroke-width="3" stroke-linecap="round"/>
<path d="M8.37549 69.583L42.5452 93.1416" stroke="#F8F8F8" stroke-width="3" stroke-linecap="round"/>
<path d="M292.514 111.931L326.683 135.489" stroke="#F8F8F8" stroke-width="3" stroke-linecap="round"/>
<path d="M151.269 140.182L185.438 163.74" stroke="#F8F8F8" stroke-width="3" stroke-linecap="round"/>
<path d="M30.2783 119.866L64.4481 143.425" stroke="#F8F8F8" stroke-width="3" stroke-linecap="round"/>
<path d="M57.8013 199.247L91.971 222.805" stroke="#F8F8F8" stroke-width="3" stroke-linecap="round"/>
<path d="M202.541 164.096L236.711 187.654" stroke="#F8F8F8" stroke-width="3" stroke-linecap="round"/>
<path d="M81.5508 143.78L115.721 167.339" stroke="#F8F8F8" stroke-width="3" stroke-linecap="round"/>
<path d="M252.732 160.505L294.1 157.138" stroke="#F8F8F8" stroke-width="3" stroke-linecap="round"/>
<path d="M180.469 118.8L221.836 115.433" stroke="#F8F8F8" stroke-width="3" stroke-linecap="round"/>
<path d="M59.479 98.4844L100.846 95.1176" stroke="#F8F8F8" stroke-width="3" stroke-linecap="round"/>
<path d="M292.514 179.65L326.683 203.209" stroke="#F8F8F8" stroke-width="3" stroke-linecap="round"/>
<path d="M141.479 172.621L149.947 213.252" stroke="#F8F8F8" stroke-width="3" stroke-linecap="round"/>
<path d="M20.4888 152.306L28.9568 192.937" stroke="#F8F8F8" stroke-width="3" stroke-linecap="round"/>
<path d="M233.322 204.569L241.79 245.2" stroke="#F8F8F8" stroke-width="3" stroke-linecap="round"/>
<path d="M220.179 43.585C223.643 42.8008 226.83 40.4209 230.203 39.1986C234.063 37.8002 238.38 36.4756 241.842 34.2421C243.243 33.3385 244.588 32.5163 246.054 31.7085C247.726 30.7873 249.128 29.3948 250.805 28.5255C252.008 27.9019 253.304 27.3379 254.669 27.3379" stroke="#F8F8F8" stroke-width="3" stroke-linecap="round"/>
<path d="M266.46 21.5233C269.94 22.2294 273.823 21.3667 277.4 21.6364C281.494 21.9449 285.975 22.5087 290.048 21.8925C291.696 21.6432 293.261 21.4456 294.929 21.3104C296.831 21.1562 298.682 20.462 300.568 20.3572C301.92 20.282 303.334 20.2995 304.578 20.8597" stroke="#F8F8F8" stroke-width="3" stroke-linecap="round"/>
<path d="M280.59 80.972C284.046 80.1564 287.211 77.7477 290.573 76.4949C294.42 75.0616 298.725 73.698 302.167 71.4332C303.559 70.5169 304.898 69.6825 306.356 68.8614C308.019 67.9251 309.409 66.52 311.078 65.6356C312.275 65.0011 313.566 64.4253 314.93 64.4129" stroke="#F8F8F8" stroke-width="3" stroke-linecap="round"/>
<path d="M173.416 63.4002C176.872 62.5846 180.037 60.176 183.399 58.9232C187.246 57.4898 191.551 56.1262 194.993 53.8614C196.385 52.9451 197.724 52.1107 199.182 51.2896C200.845 50.3533 202.235 48.9482 203.904 48.0638C205.101 47.4293 206.392 46.8535 207.757 46.8412" stroke="#F8F8F8" stroke-width="3" stroke-linecap="round"/>
<path d="M52.4256 43.0848C55.8821 42.2692 59.047 39.8605 62.4092 38.6077C66.2559 37.1744 70.5612 35.8108 74.0028 33.5459C75.3952 32.6297 76.7335 31.7953 78.1919 30.9742C79.8549 30.0379 81.2449 28.6328 82.9135 27.7484C84.1105 27.1139 85.4014 26.5381 86.7664 26.5257" stroke="#F8F8F8" stroke-width="3" stroke-linecap="round"/>
<path d="M224.938 99.993C228.394 99.1774 231.559 96.7687 234.921 95.5159C238.768 94.0826 243.073 92.719 246.515 90.4541C247.907 89.5379 249.246 88.7035 250.704 87.8824C252.367 86.9461 253.757 85.541 255.426 84.6566C256.623 84.0221 257.914 83.4463 259.279 83.4339" stroke="#F8F8F8" stroke-width="3" stroke-linecap="round"/>
<path d="M122.99 36.0293C126.334 37.2246 130.3 36.9245 133.803 37.7018C137.811 38.591 142.165 39.7881 146.285 39.7592C147.952 39.7475 149.529 39.7751 151.199 39.8792C153.104 39.9979 155.035 39.5748 156.916 39.74C158.265 39.8585 159.662 40.0775 160.814 40.8094" stroke="#F8F8F8" stroke-width="3" stroke-linecap="round"/>
<path d="M1.99988 15.7138C5.34404 16.9092 9.30996 16.6091 12.8128 17.3863C16.8204 18.2755 21.175 19.4726 25.2948 19.4437C26.9616 19.4321 28.5385 19.4597 30.2089 19.5638C32.1137 19.6825 34.0443 19.2593 35.9255 19.4246C37.2751 19.5431 38.6716 19.762 39.8237 20.494" stroke="#F8F8F8" stroke-width="3" stroke-linecap="round"/>
<path d="M124.547 108.647C128.021 107.91 131.24 105.574 134.63 104.398C138.509 103.053 142.844 101.788 146.336 99.6019C147.749 98.7176 149.106 97.9139 150.583 97.1262C152.267 96.228 153.688 94.855 155.376 94.0087C156.588 93.4017 157.891 92.8554 159.256 92.8742" stroke="#F8F8F8" stroke-width="3" stroke-linecap="round"/>
<path d="M3.55707 88.3315C7.0312 87.5948 10.2502 85.2588 13.6401 84.0829C17.5184 82.7376 21.8537 81.4723 25.3459 79.2865C26.7587 78.4022 28.1158 77.5985 29.5925 76.8108C31.2764 75.9126 32.698 74.5395 34.3863 73.6933C35.5974 73.0862 36.9012 72.54 38.266 72.5587" stroke="#F8F8F8" stroke-width="3" stroke-linecap="round"/>
<path d="M287.696 130.679C291.17 129.942 294.389 127.607 297.779 126.431C301.657 125.085 305.992 123.82 309.485 121.634C310.897 120.75 312.254 119.946 313.731 119.158C315.415 118.26 316.837 116.887 318.525 116.041C319.736 115.434 321.04 114.888 322.405 114.906" stroke="#F8F8F8" stroke-width="3" stroke-linecap="round"/>
<path d="M146.451 158.93C149.925 158.193 153.144 155.857 156.534 154.682C160.412 153.336 164.748 152.071 168.24 149.885C169.653 149.001 171.01 148.197 172.487 147.409C174.17 146.511 175.592 145.138 177.28 144.292C178.491 143.685 179.795 143.139 181.16 143.157" stroke="#F8F8F8" stroke-width="3" stroke-linecap="round"/>
<path d="M25.4604 138.615C28.9345 137.878 32.1535 135.542 35.5434 134.366C39.4217 133.021 43.757 131.756 47.2492 129.57C48.6621 128.685 50.0191 127.882 51.4958 127.094C53.1797 126.196 54.6014 124.823 56.2896 123.977C57.5007 123.369 58.8045 122.823 60.1693 122.842" stroke="#F8F8F8" stroke-width="3" stroke-linecap="round"/>
<path d="M52.9828 217.995C56.457 217.258 59.6759 214.922 63.0658 213.747C66.9442 212.401 71.2794 211.136 74.7717 208.95C76.1845 208.066 77.5416 207.262 79.0182 206.474C80.7022 205.576 82.1238 204.203 83.812 203.357C85.0232 202.75 86.3269 202.204 87.6918 202.222" stroke="#F8F8F8" stroke-width="3" stroke-linecap="round"/>
<path d="M197.723 182.844C201.197 182.108 204.416 179.772 207.806 178.596C211.684 177.25 216.02 175.985 219.512 173.799C220.925 172.915 222.282 172.111 223.758 171.323C225.442 170.425 226.864 169.052 228.552 168.206C229.763 167.599 231.067 167.053 232.432 167.071" stroke="#F8F8F8" stroke-width="3" stroke-linecap="round"/>
<path d="M76.7328 162.529C80.207 161.792 83.4259 159.456 86.8158 158.28C90.6942 156.935 95.0294 155.67 98.5217 153.484C99.9345 152.599 101.292 151.796 102.768 151.008C104.452 150.11 105.874 148.737 107.562 147.891C108.773 147.283 110.077 146.737 111.442 146.756" stroke="#F8F8F8" stroke-width="3" stroke-linecap="round"/>
<path d="M260.86 178.073C263.085 175.305 264.1 171.46 265.982 168.405C268.135 164.909 270.692 161.187 272.015 157.285C272.549 155.707 273.092 154.226 273.738 152.682C274.474 150.921 274.706 148.958 275.479 147.235C276.033 145.999 276.697 144.751 277.766 143.902" stroke="#F8F8F8" stroke-width="3" stroke-linecap="round"/>
<path d="M188.597 136.368C190.821 133.6 191.837 129.755 193.719 126.7C195.872 123.204 198.429 119.482 199.751 115.58C200.286 114.002 200.829 112.521 201.475 110.977C202.211 109.216 202.443 107.253 203.216 105.53C203.77 104.293 204.434 103.046 205.503 102.197" stroke="#F8F8F8" stroke-width="3" stroke-linecap="round"/>
<path d="M67.6059 116.053C69.8307 113.285 70.8463 109.439 72.7281 106.384C74.881 102.889 77.4384 99.1668 78.7607 95.2648C79.2956 93.6862 79.8383 92.2053 80.4838 90.6612C81.2199 88.9003 81.4525 86.9376 82.2248 85.2143C82.7789 83.9781 83.4432 82.7303 84.5121 81.8815" stroke="#F8F8F8" stroke-width="3" stroke-linecap="round"/>
<path d="M287.696 198.399C291.17 197.662 294.389 195.326 297.779 194.15C301.657 192.805 305.992 191.54 309.485 189.354C310.897 188.47 312.254 187.666 313.731 186.878C315.415 185.98 316.837 184.607 318.525 183.761C319.736 183.154 321.04 182.607 322.405 182.626" stroke="#F8F8F8" stroke-width="3" stroke-linecap="round"/>
<path d="M125.053 182.863C128.076 184.728 132.017 185.259 135.282 186.748C139.017 188.451 143.027 190.527 147.063 191.356C148.696 191.691 150.233 192.046 151.845 192.495C153.683 193.007 155.66 192.995 157.465 193.547C158.761 193.944 160.081 194.448 161.056 195.404" stroke="#F8F8F8" stroke-width="3" stroke-linecap="round"/>
<path d="M4.06288 162.548C7.08538 164.412 11.027 164.944 14.2917 166.432C18.0267 168.135 22.0372 170.212 26.073 171.04C27.7057 171.375 29.2424 171.73 30.8546 172.179C32.6931 172.692 34.6695 172.679 36.4753 173.232C37.7707 173.628 39.0911 174.133 40.0659 175.088" stroke="#F8F8F8" stroke-width="3" stroke-linecap="round"/>
<path d="M216.896 214.812C219.918 216.676 223.86 217.207 227.125 218.696C230.86 220.399 234.87 222.475 238.906 223.304C240.539 223.639 242.075 223.994 243.688 224.443C245.526 224.955 247.503 224.943 249.308 225.495C250.604 225.892 251.924 226.397 252.899 227.352" stroke="#F8F8F8" stroke-width="3" stroke-linecap="round"/>
<path d="M244.408 19.9268C242.814 26.6302 241.199 33.3497 239.42 40.006C238.707 42.6719 237.965 45.329 237.345 48.0187C236.978 49.6125 236.888 51.1835 235.857 52.421" stroke="#F8F8F8" stroke-width="3" stroke-linecap="round"/>
<path d="M298.262 9.89075C294.058 15.3498 289.828 20.8149 285.474 26.1548C283.73 28.2934 281.963 30.412 280.294 32.6106C279.305 33.9133 278.578 35.3089 277.13 36.0143" stroke="#F8F8F8" stroke-width="3" stroke-linecap="round"/>
<path d="M304.603 57.0953C303.07 63.813 301.516 70.5469 299.797 77.219C299.108 79.8912 298.39 82.5549 297.795 85.2502C297.442 86.8472 297.366 88.419 296.346 89.6657" stroke="#F8F8F8" stroke-width="3" stroke-linecap="round"/>
<path d="M197.429 39.5231C195.896 46.2407 194.342 52.9746 192.623 59.6467C191.934 62.319 191.216 64.9827 190.621 67.6779C190.268 69.2749 190.192 70.8467 189.172 72.0935" stroke="#F8F8F8" stroke-width="3" stroke-linecap="round"/>
<path d="M76.4385 19.2076C74.9055 25.9253 73.3515 32.6592 71.6325 39.3313C70.9441 42.0035 70.226 44.6672 69.6308 47.3625C69.2781 48.9595 69.2022 50.5313 68.1823 51.778" stroke="#F8F8F8" stroke-width="3" stroke-linecap="round"/>
<path d="M248.951 76.1163C247.418 82.834 245.864 89.5679 244.145 96.24C243.456 98.9122 242.738 101.576 242.143 104.271C241.79 105.868 241.714 107.44 240.694 108.687" stroke="#F8F8F8" stroke-width="3" stroke-linecap="round"/>
<path d="M156.127 29.0521C151.187 33.8557 146.221 38.6615 141.15 43.3258C139.119 45.1939 137.067 47.0387 135.102 48.9768C133.938 50.1252 133.019 51.4029 131.485 51.8944" stroke="#F8F8F8" stroke-width="3" stroke-linecap="round"/>
<path d="M35.1363 8.73665C30.1964 13.5402 25.2301 18.3461 20.159 23.0104C18.1279 24.8784 16.0767 26.7233 14.1114 28.6614C12.9469 29.8097 12.0284 31.0875 10.4944 31.579" stroke="#F8F8F8" stroke-width="3" stroke-linecap="round"/>
<path d="M149.098 85.3233C147.412 92.0042 145.705 98.701 143.835 105.332C143.086 107.988 142.307 110.635 141.651 113.316C141.262 114.904 141.15 116.474 140.102 117.697" stroke="#F8F8F8" stroke-width="3" stroke-linecap="round"/>
<path d="M28.1074 65.0078C26.4219 71.6888 24.715 78.3856 22.8445 85.0168C22.0954 87.6727 21.3169 90.3194 20.6604 93.0004C20.2715 94.5889 20.1598 96.1586 19.1117 97.3818" stroke="#F8F8F8" stroke-width="3" stroke-linecap="round"/>
<path d="M312.246 107.356C310.561 114.036 308.854 120.733 306.983 127.365C306.234 130.02 305.456 132.667 304.799 135.348C304.41 136.937 304.298 138.506 303.25 139.729" stroke="#F8F8F8" stroke-width="3" stroke-linecap="round"/>
<path d="M171.001 135.606C169.316 142.287 167.609 148.984 165.739 155.615C164.989 158.271 164.211 160.918 163.554 163.599C163.166 165.188 163.054 166.757 162.006 167.98" stroke="#F8F8F8" stroke-width="3" stroke-linecap="round"/>
<path d="M50.0112 115.291C48.3257 121.972 46.6188 128.669 44.7483 135.3C43.9992 137.956 43.2207 140.603 42.5642 143.284C42.1753 144.872 42.0636 146.442 41.0155 147.665" stroke="#F8F8F8" stroke-width="3" stroke-linecap="round"/>
<path d="M77.5332 194.671C75.8476 201.352 74.1408 208.049 72.2703 214.68C71.5211 217.336 70.7426 219.982 70.0862 222.663C69.6973 224.252 69.5856 225.822 68.5375 227.045" stroke="#F8F8F8" stroke-width="3" stroke-linecap="round"/>
<path d="M222.273 159.521C220.588 166.202 218.881 172.898 217.011 179.53C216.261 182.185 215.483 184.832 214.826 187.513C214.437 189.102 214.326 190.671 213.278 191.894" stroke="#F8F8F8" stroke-width="3" stroke-linecap="round"/>
<path d="M101.283 139.205C99.5972 145.886 97.8903 152.583 96.0198 159.214C95.2707 161.87 94.4922 164.517 93.8357 167.198C93.4468 168.786 93.3351 170.356 92.287 171.579" stroke="#F8F8F8" stroke-width="3" stroke-linecap="round"/>
<path d="M265.121 144.479C268.042 150.72 270.956 156.987 273.702 163.306C274.801 165.837 275.872 168.379 277.06 170.871C277.763 172.347 278.67 173.634 278.632 175.244" stroke="#F8F8F8" stroke-width="3" stroke-linecap="round"/>
<path d="M192.858 102.774C195.779 109.015 198.693 115.282 201.438 121.601C202.538 124.132 203.609 126.674 204.797 129.166C205.5 130.642 206.407 131.929 206.368 133.539" stroke="#F8F8F8" stroke-width="3" stroke-linecap="round"/>
<path d="M71.868 82.4588C74.7884 88.6996 77.7024 94.9661 80.4481 101.285C81.5478 103.816 82.619 106.359 83.8064 108.85C84.5099 110.327 85.4163 111.613 85.3782 113.224" stroke="#F8F8F8" stroke-width="3" stroke-linecap="round"/>
<path d="M312.246 175.075C310.561 181.756 308.854 188.453 306.983 195.084C306.234 197.74 305.456 200.387 304.799 203.068C304.41 204.656 304.298 206.226 303.25 207.449" stroke="#F8F8F8" stroke-width="3" stroke-linecap="round"/>
<path d="M158.916 182.929C153.085 186.6 147.228 190.268 141.298 193.776C138.923 195.181 136.533 196.559 134.208 198.046C132.83 198.927 131.666 199.986 130.063 200.148" stroke="#F8F8F8" stroke-width="3" stroke-linecap="round"/>
<path d="M37.9259 162.613C32.0952 166.284 26.2382 169.952 20.308 173.46C17.9329 174.865 15.5429 176.243 13.2176 177.73C11.8398 178.611 10.6756 179.67 9.07295 179.832" stroke="#F8F8F8" stroke-width="3" stroke-linecap="round"/>
<path d="M250.759 214.877C244.929 218.548 239.072 222.216 233.141 225.724C230.766 227.129 228.376 228.507 226.051 229.994C224.673 230.875 223.509 231.934 221.906 232.096" stroke="#F8F8F8" stroke-width="3" stroke-linecap="round"/>
</svg>
